<svg width="244" height="47" viewBox="0 0 244 47" fill="none" xmlns="http://www.w3.org/2000/svg">
<path fill-rule="evenodd" clip-rule="evenodd" d="M32.2929 21.392H18.0316C18.7692 11.8844 24.7524 4.42591 32.2929 3.27844V21.392Z" fill="#095099"/>
<path fill-rule="evenodd" clip-rule="evenodd" d="M32.1297 0C22.6221 1.14746 15.0816 10.0813 14.1801 21.392H0.0826416C1.55795 9.83541 15.1636 0.655694 32.1297 0Z" fill="#095099"/>
<path fill-rule="evenodd" clip-rule="evenodd" d="M32.2109 43.1939C24.6705 42.0464 18.7692 34.5879 18.0316 25.0803H32.2929V43.1939" fill="#095099"/>
<path fill-rule="evenodd" clip-rule="evenodd" d="M32.129 46.4723C15.1629 45.8166 1.47531 36.6369 0 25.0803H14.1794C14.999 36.391 22.5395 45.3249 32.129 46.4723Z" fill="#095099"/>
<path fill-rule="evenodd" clip-rule="evenodd" d="M35.9812 25.0803H50.2425C49.5049 34.5879 43.5217 42.0464 35.9812 43.1939V25.0803Z" fill="#095099"/>
<path fill-rule="evenodd" clip-rule="evenodd" d="M36.1451 46.4723C45.6526 45.3249 53.1931 36.391 54.0947 25.0803H68.2741C66.7168 36.6369 53.1112 45.8166 36.1451 46.4723Z" fill="#095099"/>
<path fill-rule="evenodd" clip-rule="evenodd" d="M45.7346 20.4904C45.0789 20.8182 44.3413 20.9822 43.6856 21.1461C43.0299 21.31 42.2923 21.392 41.6366 21.392C39.9154 21.392 38.604 20.9002 37.5385 19.9166C36.5549 18.9331 35.9812 17.6217 35.9812 15.9825C35.9812 15.2448 36.1451 14.5891 36.309 13.9334C36.5549 13.2778 36.9647 12.786 37.2926 12.2942C37.7844 11.8024 38.4401 11.3926 39.0957 11.1467C39.7514 10.9009 40.4891 10.7369 41.2267 10.7369C41.8824 10.7369 42.5381 10.8189 43.1938 11.0648C43.8495 11.3107 44.1774 11.3926 44.2593 11.3926C44.4233 11.3926 44.5872 11.3926 44.6691 11.2287C44.7511 11.1467 44.915 10.9828 44.997 10.7369H45.4068V14.2613H45.0789C44.7511 13.2778 44.2593 12.5401 43.6036 12.0483C43.0299 11.4746 42.2923 11.2287 41.5546 11.2287C40.653 11.2287 39.9154 11.6385 39.4236 12.4581C38.9318 13.2778 38.6859 14.5072 38.6859 16.0644C38.6859 17.6217 39.0138 18.8511 39.5056 19.6708C40.0793 20.4904 40.8169 20.9002 41.7185 20.9002C42.2923 20.9002 42.7021 20.8182 42.866 20.5723C43.1119 20.3265 43.1938 19.9986 43.1938 19.5888V18.3594C43.1938 17.8676 43.1119 17.5398 42.866 17.3758C42.6201 17.2119 42.2103 17.13 41.6366 17.13V16.7201H46.8001V17.048C46.3084 17.13 45.9805 17.2119 45.8166 17.2939C45.6527 17.4578 45.5707 17.7856 45.5707 18.2774V20.4904" fill="#ED1C24"/>
<path fill-rule="evenodd" clip-rule="evenodd" d="M53.2751 10.8189V11.1467C52.7013 11.2287 52.2915 11.3107 52.1276 11.4746C51.8817 11.6385 51.7998 11.9664 51.7998 12.3762V19.3429C51.7998 19.8347 51.8817 20.1625 52.1276 20.3265C52.2915 20.4904 52.7013 20.6543 53.2751 20.6543V21.0641H47.8656V20.6543C48.4393 20.6543 48.8491 20.4904 49.0131 20.3265C49.177 20.1625 49.2589 19.8347 49.2589 19.3429V12.2942C49.2589 11.8844 49.177 11.5566 49.0131 11.3926C48.8491 11.2287 48.4393 11.1467 47.8656 11.0648V10.7369H53.2751" fill="#ED1C24"/>
<path fill-rule="evenodd" clip-rule="evenodd" d="M64.0121 19.1791C63.5203 19.9168 62.8647 20.4085 62.127 20.8183C61.3074 21.2281 60.5697 21.3921 59.5862 21.3921C58.8485 21.3921 58.1109 21.3101 57.4552 21.0642C56.7995 20.8183 56.2258 20.4085 55.734 19.9168C55.2422 19.425 54.8324 18.8513 54.5865 18.1956C54.3406 17.5399 54.2587 16.8022 54.2587 15.9826C54.2587 15.2449 54.3406 14.5073 54.6685 13.8516C54.9144 13.1959 55.3242 12.6222 55.8159 12.1304C56.3077 11.6386 56.8814 11.2288 57.5371 10.9829C58.1928 10.737 58.8485 10.5731 59.6681 10.5731C60.2419 10.5731 60.8976 10.6551 61.5533 10.901C62.209 11.1469 62.5368 11.2288 62.7007 11.2288C62.8646 11.2288 63.0286 11.1469 63.1925 11.0649C63.2745 10.9829 63.3564 10.737 63.4384 10.5731H63.7662V14.0975H63.4384C63.0286 13.1139 62.5368 12.3763 61.9631 11.8845C61.3074 11.3108 60.6517 11.0649 59.8321 11.0649C58.9305 11.0649 58.1928 11.4747 57.783 12.2943C57.2913 13.1139 57.0454 14.3434 57.0454 15.9826C57.0454 17.5399 57.2913 18.6054 57.783 19.425C58.3568 20.1626 59.0944 20.5724 60.1599 20.5724C60.8156 20.5724 61.4713 20.4085 62.045 20.0807C62.6188 19.7528 63.1925 19.343 63.6843 18.6873L64.0121 19.1791Z" fill="#ED1C24"/>
<path d="M83.9288 19.8348C84.6664 19.7528 85.9778 19.5889 87.3712 19.5889C89.0104 19.5889 89.9939 19.7528 90.8135 20.2446C91.6332 20.6544 92.2069 21.474 92.2069 22.5395C92.2069 23.605 91.6332 24.5066 90.2398 24.9983C91.5512 25.3262 92.5347 26.3917 92.5347 27.867C92.5347 28.9325 92.043 29.7521 91.3053 30.4078C90.4857 31.0635 89.0104 31.4733 86.7155 31.4733C85.4041 31.4733 84.4205 31.3914 83.8468 31.3094V19.8348H83.9288ZM86.5515 24.3426H87.4531C88.8465 24.3426 89.5841 23.7689 89.5841 22.8673C89.5841 21.9658 88.9284 21.474 87.699 21.474C87.1253 21.474 86.7974 21.474 86.5515 21.5559V24.3426ZM86.5515 29.5062C86.7974 29.5062 87.1253 29.5062 87.617 29.5062C88.8465 29.5062 89.912 29.0145 89.912 27.785C89.912 26.6376 88.8465 26.1458 87.5351 26.1458H86.6335V29.5062H86.5515Z" fill="#095099"/>
<path d="M97.0427 28.3588L96.223 31.3914H93.5183L97.0427 19.6709H100.485L104.173 31.3914H101.305L100.403 28.3588H97.0427ZM98.2721 18.8513C98.518 18.0317 99.0917 17.9497 99.0917 17.376C99.0917 17.0481 98.8458 16.8022 98.5999 16.8022C98.2721 16.8022 97.9442 17.1301 97.7803 17.376L96.9607 16.8842C97.3705 16.0646 98.0262 15.4908 99.0917 15.4908C99.9933 15.4908 100.813 16.1465 100.813 16.9662C100.813 18.0317 99.9933 18.1956 99.5015 19.0152L98.2721 18.8513ZM100.075 26.3918L99.3376 23.9329C99.1737 23.2772 98.9278 22.3756 98.7639 21.638C98.5999 22.2937 98.436 23.1952 98.1901 23.9329L97.5344 26.3918H100.075Z" fill="#095099"/>
<path d="M116.058 25.4081C116.058 29.2603 113.763 31.5553 110.32 31.5553C106.878 31.5553 104.829 28.9325 104.829 25.5721C104.829 22.0477 107.124 19.4249 110.566 19.4249C114.091 19.4249 116.058 22.1297 116.058 25.4081ZM107.534 25.5721C107.534 27.867 108.599 29.5062 110.402 29.5062C112.206 29.5062 113.189 27.785 113.189 25.4901C113.189 23.3591 112.206 21.5559 110.402 21.5559C108.599 21.5559 107.534 23.2771 107.534 25.5721Z" fill="#095099"/>
<path d="M123.926 19.6708V24.1787H128.27V19.6708H130.975V31.3913H128.27V26.4736H123.926V31.3913H121.303V19.6708H123.926Z" fill="#095099"/>
<path d="M135.892 19.6708H133.27V31.3913H135.892V19.6708Z" fill="#095099"/>
<path d="M145.154 26.3917H140.892V29.1784H145.728V31.3094H138.269V19.6708H145.482V21.8838H140.892V24.3426H145.154V26.3917ZM142.777 16.8841L144.335 19.0151H142.613L141.794 17.9496L141.056 19.0151H139.335L140.892 16.8841H142.777ZM144.089 17.9496C144.335 17.212 144.908 17.048 144.908 16.4743C144.908 16.1465 144.662 15.9825 144.416 15.9825C144.089 15.9825 143.761 16.3104 143.597 16.6382L142.859 16.1465C143.269 15.4088 143.843 14.8351 144.826 14.8351C145.728 14.8351 146.384 15.4088 146.384 16.2284C146.384 17.13 145.564 17.2939 145.154 18.1955L144.089 17.9496Z" fill="#095099"/>
<path d="M157.366 26.8835C157.284 25.4901 157.284 23.7689 157.284 22.0477C156.875 23.523 156.383 25.2442 155.973 26.5556L154.58 31.1455H152.449L151.219 26.6376C150.81 25.2442 150.482 23.605 150.154 22.0477C150.072 23.605 150.072 25.4081 149.99 26.8835L149.744 31.3094H147.285L148.023 19.5889H151.547L152.695 23.523C153.104 24.8344 153.432 26.3097 153.678 27.7031H153.76C154.088 26.3097 154.498 24.8344 154.908 23.523L156.137 19.5889H159.579L160.235 31.3094H157.694L157.366 26.8835Z" fill="#095099"/>
<path d="M167.94 21.8837H164.825V19.6708H173.759V21.8837H170.562V31.3093H167.94V21.8837Z" fill="#095099"/>
<path d="M185.315 25.4081C185.315 29.2603 183.021 31.5552 179.578 31.5552C176.136 31.5552 174.087 28.9324 174.087 25.6539C174.087 22.2116 176.3 19.5888 179.742 19.5888C183.348 19.5068 185.315 22.1296 185.315 25.4081ZM176.873 25.49C176.873 27.785 177.939 29.4242 179.66 29.4242C181.463 29.4242 182.447 27.703 182.447 25.49C182.447 23.359 181.463 21.5559 179.66 21.5559C177.939 21.5559 176.873 23.2771 176.873 25.49Z" fill="#095099"/>
<path d="M189.413 28.2768L188.594 31.2274H185.889L189.413 19.5888H192.856L196.462 31.2274H193.593L192.692 28.2768H189.413ZM190.971 16.9661L192.446 19.0971H190.315L188.184 16.9661H190.971ZM192.364 26.3917L191.626 23.9328C191.381 23.2771 191.217 22.3755 191.053 21.7198C190.889 22.3755 190.725 23.2771 190.479 23.9328L189.823 26.3917H192.364Z" fill="#095099"/>
<path d="M198.019 31.3093V19.6708H201.052L203.429 23.9328C204.085 25.1622 204.822 26.6375 205.314 27.9489C205.15 26.3916 205.068 24.8344 205.068 23.1132V19.6708H207.445V31.3093H204.904L202.445 26.8014C201.79 25.572 200.97 24.0967 200.396 22.7034H200.314C200.396 24.2606 200.396 25.8999 200.396 27.785V31.3093H198.019Z" fill="#095099"/>
<path d="M221.87 30.9815C221.379 31.2274 220.313 31.4732 218.92 31.4732C214.904 31.4732 212.855 28.9324 212.855 25.654C212.855 21.7198 215.641 19.5068 219.166 19.5068C220.559 19.5068 221.542 19.7527 222.034 19.9986L221.461 22.0476C220.969 21.8018 220.231 21.6378 219.248 21.6378C217.199 21.6378 215.559 22.8673 215.559 25.49C215.559 27.785 216.953 29.2603 219.248 29.2603C220.067 29.2603 220.887 29.0964 221.461 28.8505L221.87 30.9815Z" fill="#095099"/>
<path d="M226.542 28.2768L225.723 31.2275H223.018L226.542 19.5889H229.985L233.591 31.2275H230.804L229.903 28.2768H226.542ZM229.165 16.9661L230.722 19.0971H229.001L228.263 18.0316L227.526 19.0971H225.886L227.444 16.9661H229.165ZM229.493 26.3917L228.755 23.9329C228.509 23.2772 228.345 22.3756 228.181 21.7199C228.017 22.3756 227.854 23.2772 227.608 23.9329L226.952 26.3917H229.493ZM231.05 15.7367L232.198 17.7038H230.804L228.755 15.7367H231.05Z" fill="#095099"/>
<path d="M237.115 19.6708V26.3097C237.115 28.3587 237.853 29.3423 239.246 29.3423C240.64 29.3423 241.377 28.3587 241.377 26.3097V19.6708H244V26.2277C244 29.834 242.197 31.5552 239.164 31.5552C236.214 31.5552 234.492 29.916 234.492 26.2277V19.6708H237.115Z" fill="#095099"/>
</svg>
